<svg xmlns="http://www.w3.org/2000/svg" xmlns:ns1="http://sozi.baierouge.fr" xmlns:svg="http://www.w3.org/2000/svg" xmlns:xlink="http://www.w3.org/1999/xlink" id="svg3019" version="1.1" viewBox="0 0 194.22 184.73"><g id="layer1" transform="translate(-262.89 -462.86)"><g id="g3867" transform="translate(10.175 71.896)"><path id="path2985" d="m369.21 535.67-27.378-13.792-26.883 14.735 4.6566-30.3-22.321-21.014 30.256-4.9346 13.088-27.722 14.043 27.251 30.409 3.8806-21.577 21.776z" transform="matrix(2.2115 .038861 -.038861 2.2115 -385.88 -623.3)" style="fill:#fc0"/><path id="path3836" d="m380.03 451.38c-30.39 41.369-30.72 41.819-30.72 41.819l97.411-31.899z" style="fill:#ffe680"/><path id="path3838" d="m349.81 492.31v51.942l-60.63 31.117z" style="fill:#fd5"/><path id="path3840" d="m349.81 492.31 59.613 81.476-11.189-65.984z" style="fill:#fd5"/><path id="path3842" d="m253.1 461.37 96.715 30.942-29.882-40.842z" style="fill:#ffe680"/><path id="path3844" d="m349.81 492.31v-101.22l29.83 60.357z" style="fill:#fd5"/><path id="path3846" d="m289.8 574.53 11.261-66.541 48.757-15.679z" style="fill:#ffd42a"/></g></g><metadata/></svg>